# Created by Kenney (www.kenney.nl)

mtllib Comb.mtl

g mergedBlocks

v 0.5 1 -0.2886751
v 0.5 0.75 -0.2886751
v 0.5 1 0.2886751
v 0.5 0.75 0.2886751
v -0.5 0.75 -0.2886751
v -0.5 1 -0.2886751
v -0.5 0.75 0.2886751
v -0.5 1 0.2886751
v 1.198373E-13 0 0.5773503
v -0.5 0 0.2886751
v 1.198373E-13 0.25 0.5773503
v -0.5 0.25 0.2886751
v 0.5 0 0.2886751
v 0.5 0.25 0.2886751
v -1.357193E-13 0 -0.5773503
v 0.5 0 -0.2886751
v -1.357193E-13 0.25 -0.5773503
v 0.5 0.25 -0.2886751
v -0.5 0 -0.2886751
v -0.5 0.25 -0.2886751
v 1.198373E-13 1 0.5773503
v -1.357193E-13 1 -0.5773503
v 1.198373E-13 0.75 0.5773503
v -1.357193E-13 0.75 -0.5773503
v 0.6000561 0.35 0.3464425
v 1.198373E-13 0.35 0.692885
v 0.6000561 0.65 0.3464425
v 1.198373E-13 0.65 0.692885
v 0.6000561 0.65 -0.3464425
v 0.6000561 0.35 -0.3464425
v -1.862531E-13 0.35 -0.692885
v -1.862531E-13 0.65 -0.692885
v -0.6000561 0.35 0.3464425
v -0.6000561 0.65 0.3464425
v -0.6000561 0.35 -0.3464425
v -0.6000561 0.65 -0.3464425

vn 1 0 0
vn -1 0 0
vn -0.5 0 0.8660254
vn 0.5 0 0.8660254
vn 0.5 0 -0.8660254
vn -0.5 0 -0.8660254
vn 0 1 0
vn 0 -1 0
vn 0.3534543 0.7073048 0.6122008
vn -0.3534543 0.7073048 0.6122008
vn 0.3534543 0.7073048 -0.6122008
vn 0.7069086 0.7073048 0
vn -0.3534543 0.7073048 -0.6122008
vn -0.3534543 -0.7073048 -0.6122008
vn -0.7069086 0.7073048 0
vn 0.3534543 -0.7073048 0.6122008
vn -0.3534543 -0.7073048 0.6122008
vn -0.7069086 -0.7073048 0
vn 0.7069086 -0.7073048 0
vn 0.3534543 -0.7073048 -0.6122008

vt 0.2886751 1
vt 0.2886751 0.75
vt -0.2886751 1
vt -0.2886751 0.75
vt 1.198373E-13 0
vt -0.5 0
vt 1.198373E-13 0.25
vt -0.5 0.25
vt 0.5 0
vt 0.5 0.25
vt 1.357193E-13 0
vt 1.357193E-13 0.25
vt -0.5 0.2886751
vt -1.198373E-13 0.5773503
vt -0.5 -0.2886751
vt 1.357193E-13 -0.5773503
vt 0.5 0.2886751
vt 0.5 -0.2886751
vt 1.198373E-13 0.75
vt -0.5 0.75
vt 1.198373E-13 1
vt -0.5 1
vt 0.5 0.75
vt 1.357193E-13 0.75
vt 0.5 1
vt 1.357193E-13 1
vt -0.2886751 0
vt -0.2886751 0.25
vt 0.2886751 0
vt 0.2886751 0.25
vt -1.198373E-13 -0.5773503
vt 1.357193E-13 0.5773503
vt 0.6000561 0.35
vt 1.198373E-13 0.35
vt 0.6000561 0.65
vt 1.198373E-13 0.65
vt 0.3464425 0.65
vt 0.3464425 0.35
vt -0.3464425 0.65
vt -0.3464425 0.35
vt 1.862531E-13 0.35
vt -0.6000561 0.35
vt 1.862531E-13 0.65
vt -0.6000561 0.65
vt -0.6000561 0.3464425
vt -1.198373E-13 0.692885
vt 0.6000561 0.3464425
vt -0.6000561 -0.3464425
vt 1.862531E-13 -0.692885
vt 0.6000561 -0.3464425
vt 1.862531E-13 0.692885
vt -1.198373E-13 -0.692885

usemtl stone

f 3/3/1 2/2/1 1/1/1
f 2/2/1 3/3/1 4/4/1
f 7/2/2 6/3/2 5/4/2
f 6/3/2 7/2/2 8/1/2
f 11/7/3 10/6/3 9/5/3
f 10/6/3 11/7/3 12/8/3
f 14/10/4 9/5/4 13/9/4
f 9/5/4 14/10/4 11/7/4
f 17/12/5 16/6/5 15/11/5
f 16/6/5 17/12/5 18/8/5
f 20/10/6 15/11/6 19/9/6
f 15/11/6 20/10/6 17/12/6
f 1/15/7 21/14/7 3/13/7
f 21/14/7 1/15/7 22/16/7
f 21/14/7 22/16/7 8/17/7
f 8/17/7 22/16/7 6/18/7
f 21/21/3 7/20/3 23/19/3
f 7/20/3 21/21/3 8/22/3
f 6/25/6 24/24/6 5/23/6
f 24/24/6 6/25/6 22/26/6
f 3/25/4 23/19/4 4/23/4
f 23/19/4 3/25/4 21/21/4
f 10/29/2 20/28/2 19/27/2
f 20/28/2 10/29/2 12/30/2
f 22/26/5 2/20/5 24/24/5
f 2/20/5 22/26/5 1/22/5
f 9/31/8 16/13/8 13/15/8
f 16/13/8 9/31/8 15/32/8
f 15/32/8 9/31/8 10/18/8
f 15/32/8 10/18/8 19/17/8
f 14/28/1 16/29/1 18/30/1
f 16/29/1 14/28/1 13/27/1

usemtl stoneDark

f 27/35/4 26/34/4 25/33/4
f 26/34/4 27/35/4 28/36/4
f 27/39/1 30/38/1 29/37/1
f 30/38/1 27/39/1 25/40/1
f 32/43/5 30/42/5 31/41/5
f 30/42/5 32/43/5 29/44/5
f 4/13/9 28/46/9 27/45/9
f 28/46/9 4/13/9 23/14/9
f 28/36/3 33/42/3 26/34/3
f 33/42/3 28/36/3 34/44/3
f 7/17/10 28/46/10 23/14/10
f 28/46/10 7/17/10 34/47/10
f 32/49/11 2/15/11 29/48/11
f 2/15/11 32/49/11 24/16/11
f 36/35/6 31/41/6 35/33/6
f 31/41/6 36/35/6 32/43/6
f 29/48/12 4/13/12 27/45/12
f 4/13/12 29/48/12 2/15/12
f 33/38/2 36/39/2 35/40/2
f 36/39/2 33/38/2 34/37/2
f 32/49/13 5/18/13 24/16/13
f 5/18/13 32/49/13 36/50/13
f 20/17/14 31/51/14 17/32/14
f 31/51/14 20/17/14 35/47/14
f 5/18/15 34/47/15 7/17/15
f 34/47/15 5/18/15 36/50/15
f 26/52/16 14/15/16 25/48/16
f 14/15/16 26/52/16 11/31/16
f 33/50/17 11/31/17 26/52/17
f 11/31/17 33/50/17 12/18/17
f 33/50/18 20/17/18 12/18/18
f 20/17/18 33/50/18 35/47/18
f 14/15/19 30/45/19 25/48/19
f 30/45/19 14/15/19 18/13/19
f 18/13/20 31/51/20 30/45/20
f 31/51/20 18/13/20 17/32/20

